#N canvas 870 0 1681 1348 10;
#X declare -lib SDT;
#X declare -lib mrpeach;
#X obj 336 956 dac~;
#X text 200 1009 Args: object ID;
#X text 493 1008 Args: object ID \, n. of modes \, n. of pickups;
#X msg 31 31 Sound Design Toolkit \; (C) 2001 - 2021 \; \; Project
SOb - soundobject.org \; Project CLOSED - closed.ircam.fr \; Project
NIW - soundobject.org/niw \; Project SkAT-VG - skatvg.eu;
#X obj 282 487 vsl 15 128 1e-005 1 1 0 empty grain empty 0 -9 0 10
-262144 -1 -1 12700 1;
#X obj 394 487 vsl 15 128 0 200 0 0 empty depth empty 0 -9 0 10 -262144
-1 -1 317 1;
#X obj 169 483 vsl 15 128 0 10 0 0 empty velocity empty 0 -9 0 10 -262144
-1 -1 0 1;
#X floatatom 394 623 5 0 0 0 - - -;
#X floatatom 282 623 6 0 0 0 - - -;
#X floatatom 153 623 5 0 0 0 - - -;
#X obj 493 14 loadbang;
#X obj 153 764 rolling~;
#X obj 194 791 r ro;
#X msg 65 643 mass \$1;
#X obj 85 981 r hammerro;
#X obj 353 981 r objectro;
#X obj 65 484 vsl 15 128 0.001 1 0 0 empty mass empty 0 -9 0 10 -262144
-1 -1 114 1;
#X floatatom 65 624 5 0 0 0 - - -;
#X msg 153 642 velocity \$1;
#X text 23 449 Rolling mass (Kg) and velocity (m/s);
#X msg 282 642 grain \$1;
#X text 258 449 Surface grain;
#X msg 394 642 depth \$1;
#X text 369 450 Grain depth;
#X obj 92 676 noise~;
#X obj 92 703 lop~ 20;
#X obj 92 731 *~ 10;
#X msg 87 941 strike 0 0;
#X obj 336 923 *~ 50000;
#X obj 153 819 impact~ hammerro objectro 2;
#X obj 65 1008 inertial hammerro;
#X obj 353 1008 modal objectro 3 1;
#X obj 264 42 declare -lib SDT;
#X obj 384 15 r pd-dsp-started;
#X obj 93 316 udpreceive 6161;
#X obj 264 75 import mrpeach;
#X obj 93 359 unpackOSC;
#X obj 93 398 route /speed /hit;
#X obj 720 815 dac~;
#X msg 525 622 stiffness \$1;
#X msg 660 621 dissipation \$1;
#X obj 800 462 vsl 15 128 1 4 0 0 empty shape empty 0 -9 0 10 -262144
-1 -1 5313 1;
#X obj 660 462 vsl 15 128 0 40 0 0 empty dissipation empty 0 -9 0 10
-262144 -1 -1 6915 1;
#X obj 525 464 vsl 15 128 1000 1e+008 1 0 empty stiffness empty 0 -9
0 10 -262144 -1 -1 4660 1;
#X floatatom 525 602 10 0 0 0 - - -;
#X floatatom 660 600 5 0 0 0 - - -;
#X floatatom 800 600 5 0 0 0 - - -;
#X text 1050 553 Args: object ID;
#X text 1058 618 Args: object ID \, n. of modes \, n. of pickups;
#X obj 525 670 impact~ hammerimp objectimp 2;
#X text 483 441 Impact stiffness;
#X text 613 440 Impact dissipation;
#X msg 800 621 shape \$1;
#X obj 969 526 r hammerimp;
#X obj 906 593 r objectimp;
#X obj 905 553 inertial hammerimp;
#X obj 906 618 modal objectimp 3 1;
#X obj 486 646 r imp;
#X msg 905 500 strike 0 -3;
#X obj 931 459 bng 32 250 50 0 empty empty empty 17 7 0 10 -262144
-1 -1;
#X text 768 440 Contact shape;
#X obj 720 784 *~ 1000;
#X text 903 441 Test Hit Sound;
#X msg 610 54 \; hammerimp mass 0.01 \; hammerimp fragmentSize 1 \;
objectimp freqs 500 1300 1700 \; objectimp decays 1 0.5 0.25 \; objectimp
pickup 0 100 100 100 \; objectimp activeModes 3 \; objectimp fragmentSize
1 \; imp contact0 0 \; imp contact1 0 \; stiffness 68350 \; dissipation
21.78 \; shape 2.255 \;;
#X msg 384 52 \; hammerro fragmentSize 1 \; objectro freqs 500 1300
1700 \; objectro decays 0.03 0.02 0.01 \; objectro pickup 0 100 100
100 \; objectro activeModes 3 \; objectro fragmentSize 1 \; ro stiffness
1e+008 \; ro dissipation 0.8 \; ro shape 0.1 \; ro contact0 0 \; ro
contact1 0 \; mass 0.01 \; velocity 0 \; grain 1 \; depth 5 \;;
#X connect 4 0 8 0;
#X connect 5 0 7 0;
#X connect 6 0 9 0;
#X connect 7 0 22 0;
#X connect 8 0 20 0;
#X connect 9 0 18 0;
#X connect 10 0 64 0;
#X connect 10 0 63 0;
#X connect 11 0 29 0;
#X connect 12 0 29 0;
#X connect 13 0 11 0;
#X connect 13 0 30 0;
#X connect 14 0 30 0;
#X connect 15 0 31 0;
#X connect 16 0 17 0;
#X connect 17 0 13 0;
#X connect 18 0 11 0;
#X connect 20 0 11 0;
#X connect 22 0 11 0;
#X connect 24 0 25 0;
#X connect 25 0 26 0;
#X connect 26 0 11 0;
#X connect 27 0 30 0;
#X connect 28 0 0 0;
#X connect 28 0 0 1;
#X connect 29 1 28 0;
#X connect 33 0 64 0;
#X connect 33 0 63 0;
#X connect 34 0 36 0;
#X connect 36 0 37 0;
#X connect 37 0 9 0;
#X connect 37 1 58 0;
#X connect 39 0 49 0;
#X connect 40 0 49 0;
#X connect 41 0 46 0;
#X connect 42 0 45 0;
#X connect 43 0 44 0;
#X connect 44 0 39 0;
#X connect 45 0 40 0;
#X connect 46 0 52 0;
#X connect 49 1 61 0;
#X connect 52 0 49 0;
#X connect 53 0 55 0;
#X connect 54 0 56 0;
#X connect 57 0 49 0;
#X connect 58 0 55 0;
#X connect 59 0 58 0;
#X connect 61 0 38 0;
#X connect 61 0 38 1;
